HIERARCHY
ROOT hip
{
  OFFSET 0 0 0
  CHANNELS 6 Xposition Yposition Zposition Zrotation Yrotation Xrotation
  JOINT abdomen
  {
    OFFSET 0 20.6881 -0.73152
    CHANNELS 3 Zrotation Xrotation Yrotation
    JOINT chest
    {
      OFFSET 0 11.7043 -0.48768
      CHANNELS 3 Zrotation Xrotation Yrotation
      JOINT neck
      {
        OFFSET 0 22.1894 -2.19456
        CHANNELS 3 Zrotation Xrotation Yrotation
        JOINT head
        {
          OFFSET -0.24384 7.07133 1.2192
          CHANNELS 3 Zrotation Xrotation Yrotation
          JOINT leftEye
          {
            OFFSET 4.14528 8.04674 8.04672
            CHANNELS 3 Zrotation Xrotation Yrotation
            End Site
            {
              OFFSET 1 0 0
            }
          }
          JOINT rightEye
          {
            OFFSET -3.6576 8.04674 8.04672
            CHANNELS 3 Zrotation Xrotation Yrotation
            End Site
            {
              OFFSET 1 0 0
            }
          }
        }
      }
      JOINT rCollar
      {
        OFFSET -2.68224 19.2634 -4.8768
        CHANNELS 3 Zrotation Xrotation Yrotation
        JOINT rShldr
        {
          OFFSET -8.77824 -1.95073 1.46304
          CHANNELS 3 Zrotation Xrotation Yrotation
          JOINT rForeArm
          {
            OFFSET -28.1742 -1.7115 0.48768
            CHANNELS 3 Zrotation Xrotation Yrotation
            JOINT rHand
            {
              OFFSET -22.5879 0.773209 7.07136
              CHANNELS 3 Zrotation Xrotation Yrotation
              JOINT rThumb1
              {
                OFFSET -1.2192 -0.487915 3.41376
                CHANNELS 3 Zrotation Xrotation Yrotation
                JOINT rThumb2
                {
                  OFFSET -3.37035 -0.52449 3.41376
                  CHANNELS 3 Zrotation Xrotation Yrotation
                  End Site
                  {
                    OFFSET -1.78271 -1.18214 1.43049
                  }
                }
              }
              JOINT rIndex1
              {
                OFFSET -7.75947 0.938293 5.60832
                CHANNELS 3 Zrotation Xrotation Yrotation
                JOINT rIndex2
                {
                  OFFSET -2.54057 -0.884171 1.56538
                  CHANNELS 3 Zrotation Xrotation Yrotation
                  End Site
                  {
                    OFFSET -1.62519 -0.234802 1.16502
                  }
                }
              }
              JOINT rMid1
              {
                OFFSET -8.24714 1.18213 3.41376
                CHANNELS 3 Zrotation Xrotation Yrotation
                JOINT rMid2
                {
                  OFFSET -3.10165 -0.590103 1.0647
                  CHANNELS 3 Zrotation Xrotation Yrotation
                  End Site
                  {
                    OFFSET -2.48547 -0.328903 0.83742
                  }
                }
              }
              JOINT rRing1
              {
                OFFSET -8.82822 0.546677 1.51678
                CHANNELS 3 Zrotation Xrotation Yrotation
                JOINT rRing2
                {
                  OFFSET -2.60934 -0.819778 -0.0198488
                  CHANNELS 3 Zrotation Xrotation Yrotation
                  End Site
                  {
                    OFFSET -2.33842 -0.294052 0.168128
                  }
                }
              }
              JOINT rPinky1
              {
                OFFSET -8.27202 -0.0477905 -0.4584
                CHANNELS 3 Zrotation Xrotation Yrotation
                JOINT rPinky2
                {
                  OFFSET -1.82734 -0.647385 -0.700984
                  CHANNELS 3 Zrotation Xrotation Yrotation
                  End Site
                  {
                    OFFSET -1.69225 -0.51767 -0.607171
                  }
                }
              }
            }
          }
        }
      }
      JOINT lCollar
      {
        OFFSET 2.68224 19.2634 -4.8768
        CHANNELS 3 Zrotation Xrotation Yrotation
        JOINT lShldr
        {
          OFFSET 8.77824 -1.95073 1.46304
          CHANNELS 3 Zrotation Xrotation Yrotation
          JOINT lForeArm
          {
            OFFSET 28.1742 -1.7115 0.48768
            CHANNELS 3 Zrotation Xrotation Yrotation
            JOINT lHand
            {
              OFFSET 22.5879 0.773209 7.07136
              CHANNELS 3 Zrotation Xrotation Yrotation
              JOINT lThumb1
              {
                OFFSET 1.2192 -0.487915 3.41376
                CHANNELS 3 Zrotation Xrotation Yrotation
                JOINT lThumb2
                {
                  OFFSET 3.37035 -0.52449 3.41376
                  CHANNELS 3 Zrotation Xrotation Yrotation
                  End Site
                  {
                    OFFSET 1.78271 -1.18214 1.43049
                  }
                }
              }
              JOINT lIndex1
              {
                OFFSET 7.75947 0.938293 5.60832
                CHANNELS 3 Zrotation Xrotation Yrotation
                JOINT lIndex2
                {
                  OFFSET 2.54057 -0.884171 1.56538
                  CHANNELS 3 Zrotation Xrotation Yrotation
                  End Site
                  {
                    OFFSET 1.62519 -0.234802 1.16502
                  }
                }
              }
              JOINT lMid1
              {
                OFFSET 8.24714 1.18213 3.41376
                CHANNELS 3 Zrotation Xrotation Yrotation
                JOINT lMid2
                {
                  OFFSET 3.10165 -0.590103 1.0647
                  CHANNELS 3 Zrotation Xrotation Yrotation
                  End Site
                  {
                    OFFSET 2.48547 -0.328903 0.83742
                  }
                }
              }
              JOINT lRing1
              {
                OFFSET 8.82822 0.546677 1.51678
                CHANNELS 3 Zrotation Xrotation Yrotation
                JOINT lRing2
                {
                  OFFSET 2.60934 -0.819778 -0.0198488
                  CHANNELS 3 Zrotation Xrotation Yrotation
                  End Site
                  {
                    OFFSET 2.33842 -0.294052 0.168128
                  }
                }
              }
              JOINT lPinky1
              {
                OFFSET 8.27202 -0.0477905 -0.4584
                CHANNELS 3 Zrotation Xrotation Yrotation
                JOINT lPinky2
                {
                  OFFSET 1.82734 -0.647385 -0.700984
                  CHANNELS 3 Zrotation Xrotation Yrotation
                  End Site
                  {
                    OFFSET 1.69225 -0.51767 -0.607171
                  }
                }
              }
            }
          }
        }
      }
    }
  }
  JOINT rButtock
  {
    OFFSET -8.77824 4.35084 1.2192
    CHANNELS 3 Zrotation Xrotation Yrotation
    JOINT rThigh
    {
      OFFSET 0 -1.70687 -2.19456
      CHANNELS 3 Zrotation Xrotation Yrotation
      JOINT rShin
      {
        OFFSET 0 -36.8199 0.73152
        CHANNELS 3 Zrotation Xrotation Yrotation
        JOINT rFoot
        {
          OFFSET 0.73152 -45.1104 -5.12064
          CHANNELS 3 Zrotation Xrotation Yrotation
          End Site
          {
            OFFSET -1.1221 -3.69964 12.103
          }
        }
      }
    }
  }
  JOINT lButtock
  {
    OFFSET 8.77824 4.35084 1.2192
    CHANNELS 3 Zrotation Xrotation Yrotation
    JOINT lThigh
    {
      OFFSET 0 -1.70687 -2.19456
      CHANNELS 3 Zrotation Xrotation Yrotation
      JOINT lShin
      {
        OFFSET 0 -36.8199 0.73152
        CHANNELS 3 Zrotation Xrotation Yrotation
        JOINT lFoot
        {
          OFFSET -0.73152 -45.1104 -5.12064
          CHANNELS 3 Zrotation Xrotation Yrotation
          End Site
          {
            OFFSET 1.1221 -3.69964 12.103
          }
        }
      }
    }
  }
}
MOTION
Frames:	4
Frame Time:	0.03333
5.132264876738191 63.00251483917236 -20.017278101295233 175.70138549804688 41.579315185546875 178.9827880859375 -4.493967056274414 13.497836112976074 -1.1070873737335205 5.647749423980713 -11.061134338378906 0.2674205005168915 -6.832145690917969 17.571455001831055 -11.949962615966797 11.173672676086426 -27.885454177856445 -21.58175277709961 -0.20502881705760956 -0.4586869180202484 0.0037008137442171574 0.16083770990371704 -0.2061326652765274 -0.5386230945587158 0.1285794973373413 -0.06265778094530106 -0.5486031174659729 51.72304916381836 -11.133415222167969 33.03377151489258 -26.207763671875 -25.65205955505371 60.77064895629883 -0.9191551804542542 18.112506866455078 2.3049888610839844 0.6312770843505859 0.10820725560188293 0.074737548828125 0.2470855712890625 -0.1820024996995926 0.27479541301727295 -0.06690661609172821 -0.07987455278635025 -0.41427403688430786 7.594320297241211 5.47056770324707 0.8832645416259766 -0.6177407503128052 0.40242043137550354 0.18190567195415497 3.1559500694274902 0.5704532265663147 0.00794580951333046 0.6878153085708618 -0.09356894344091415 -0.9387595057487488 10.41357421875 0.09487398713827133 0.4340299367904663 0.1547168344259262 0.27436283230781555 -0.18071481585502625 1.9052047729492188 -0.5658066272735596 0.06784414499998093 0.04571811482310295 -0.08830352127552032 -0.6997082829475403 -54.87466049194336 75.78990936279297 -20.001747131347656 28.16490936279297 -40.2469367980957 -84.59381103515625 29.130165100097656 -76.76453399658203 36.56466293334961 0.02615915983915329 -0.06917086988687515 0.45342129468917847 0.07628226280212402 0.7876076102256775 0.2461840659379959 -0.42147591710090637 0.23116451501846313 -0.1262902468442917 -7.432245254516602 5.372805595397949 -0.562251091003418 0.29285573959350586 -0.00830306950956583 -0.5153890252113342 -3.1415770053863525 1.2251774072647095 0.17640119791030884 -0.04011184722185135 0.11803536117076874 -0.37664785981178284 -10.756922721862793 0.805651843547821 -0.40238022804260254 -0.17890505492687225 0.28996339440345764 0.17076267302036285 -2.6978204250335693 -1.0210623741149902 0.0038174993824213743 -0.25322425365448 -0.5037091970443726 -0.43742671608924866 -62.53573989868164 -51.950408935546875 -59.58555603027344 -1.8529237508773804 70.23812103271484 1.661745548248291 3.312845230102539 -4.5580735206604 16.402097702026367 -0.28953516483306885 0.09974294155836105 0.3867136836051941 19.831523895263672 -39.62666702270508 27.098180770874023 8.27432918548584 84.33056640625 -10.320426940917969 20.282777786254883 -24.815217971801758 31.707887649536133
5.38632282987237 63.2171094417572 -20.55280990898609 175.53810119628906 40.547080993652344 179.35586547851562 -4.204607009887695 13.74342155456543 -1.182664155960083 5.52385950088501 -11.073579788208008 0.26615798473358154 -6.529328346252441 17.22093391418457 -11.185190200805664 10.776138305664062 -28.032026290893555 -20.273483276367188 -0.20491670072078705 -0.46533340215682983 0.01918845996260643 0.14409489929676056 -0.21210883557796478 -0.5563188195228577 0.09672445803880692 -0.08573242276906967 -0.6224218010902405 51.51767349243164 -10.711385726928711 33.83955383300781 -26.088855743408203 -25.51355743408203 60.45871353149414 -0.8636767864227295 15.483170509338379 1.8902961015701294 0.6116378903388977 0.08017680794000626 0.04785123094916344 0.3169056475162506 -0.16750246286392212 0.29488447308540344 -0.07382296025753021 -0.15236058831214905 -0.43802180886268616 7.5688652992248535 5.434216022491455 0.9276888370513916 -0.6418627500534058 0.424600213766098 0.14199180901050568 3.1393420696258545 0.5702914595603943 -0.07730171829462051 0.6967719793319702 -0.07857493311166763 -0.91778963804245 10.41136360168457 0.1069670096039772 0.4739843010902405 0.27200719714164734 0.3111250102519989 -0.14386558532714844 1.8449643850326538 -0.5806613564491272 0.11581110954284668 0.05598800629377365 -0.047850508242845535 -0.6625208854675293 -45.741355895996094 74.6634521484375 -29.943683624267578 28.239900588989258 -39.85321044921875 -83.91111755371094 25.11829376220703 -75.5107192993164 32.3936653137207 0.05897633358836174 -0.04950603470206261 0.3855060636997223 0.07511615008115768 0.758557915687561 0.2327452450990677 -0.43483421206474304 0.2333129197359085 -0.1622321605682373 -7.391233444213867 5.3597893714904785 -0.564008891582489 0.23948830366134644 0.06386791169643402 -0.49549150466918945 -3.1334915161132812 1.2439345121383667 0.14712750911712646 0.07709738612174988 0.09228270500898361 -0.38165807723999023 -10.698219299316406 0.7492111325263977 -0.39582836627960205 -0.22216609120368958 0.2223244458436966 0.0566425547003746 -2.6358871459960938 -0.9940611124038696 -0.041018664836883545 -0.2958091199398041 -0.5183562636375427 -0.417355477809906 -61.12508773803711 -52.69435501098633 -57.67533493041992 -1.9946898221969604 70.0198745727539 1.7484583854675293 3.1562514305114746 -4.705422878265381 15.516257286071777 -0.26268845796585083 0.11515611410140991 0.37270528078079224 18.756677627563477 -40.421268463134766 25.336294174194336 7.0861029624938965 83.97564697265625 -9.155302047729492 20.014442443847656 -24.418771743774414 31.673845291137695
5.771898431703448 63.32579851150513 -21.238660160452127 175.68128967285156 38.69072341918945 -179.96624755859375 -3.9776253700256348 13.930022239685059 -1.24765145778656 5.35452127456665 -11.170914649963379 0.27154630422592163 -6.269531726837158 16.829660415649414 -10.432032585144043 10.288533210754395 -28.10354995727539 -18.90641975402832 -0.1895768940448761 -0.47471705079078674 0.01425214298069477 0.12272297590970993 -0.18952518701553345 -0.6196185350418091 0.09777416288852692 -0.1341564804315567 -0.6986442804336548 51.41490173339844 -10.366683959960938 34.71910095214844 -25.98548698425293 -25.6630916595459 60.54660415649414 -0.8710792064666748 13.96153736114502 1.6824109554290771 0.5409756898880005 0.021494373679161072 0.009242241270840168 0.3975408673286438 -0.10967639088630676 0.3307833969593048 -0.14118871092796326 -0.2519912123680115 -0.4367513656616211 7.522023677825928 5.3924665451049805 0.9704940319061279 -0.688622236251831 0.4273642599582672 0.08877982944250107 3.1537506580352783 0.6053582429885864 -0.13687360286712646 0.7336315512657166 -0.011605279520154 -0.8844226002693176 10.41975212097168 0.1212526485323906 0.4966301918029785 0.41544267535209656 0.33510419726371765 -0.14229898154735565 1.8304481506347656 -0.5898315906524658 0.13825006783008575 0.08079590648412704 -0.006384267006069422 -0.5729233622550964 -38.00032043457031 74.00635528564453 -38.37847137451172 28.20467758178711 -39.98916244506836 -84.26946258544922 24.201215744018555 -75.32185363769531 31.3553409576416 0.024866050109267235 0.005928499158471823 0.30388107895851135 0.061272308230400085 0.7087162733078003 0.21539069712162018 -0.4804895222187042 0.2397601157426834 -0.19324585795402527 -7.387176036834717 5.364259243011475 -0.5659831762313843 0.16291818022727966 0.1173623725771904 -0.4722674787044525 -3.1314992904663086 1.2408019304275513 0.07244546711444855 0.2171844094991684 0.07172434777021408 -0.36658409237861633 -10.611807823181152 0.6716159582138062 -0.3854965269565582 -0.2752549946308136 0.196044921875 -0.05681298300623894 -2.577427387237549 -0.8982738852500916 -0.145418182015419 -0.27309921383857727 -0.5063484311103821 -0.4112519919872284 -60.702537536621094 -53.211429595947266 -56.74394607543945 -2.194650411605835 70.26667022705078 1.9014530181884766 2.993361711502075 -5.0108232498168945 14.686437606811523 -0.20007199048995972 0.12030313163995743 0.3879716992378235 18.171323776245117 -41.340187072753906 24.196552276611328 6.382836818695068 84.02735137939453 -8.494449615478516 19.767436981201172 -24.240175247192383 31.465229034423828
6.282535381615162 63.195258378982544 -22.039238922297955 175.98980712890625 37.459598541259766 -179.12734985351562 -3.5914132595062256 14.132610321044922 -1.2792669534683228 5.091180324554443 -11.182014465332031 0.252621054649353 -5.86830472946167 16.195432662963867 -9.188013076782227 9.480246543884277 -27.96891975402832 -16.743427276611328 -0.1886732429265976 -0.5087718963623047 0.04792029783129692 0.10408522933721542 -0.1903977394104004 -0.6950435042381287 0.040253546088933945 -0.14223311841487885 -0.7567887902259827 51.070865631103516 -9.387608528137207 35.01335906982422 -25.88385009765625 -25.68780517578125 60.32595443725586 -0.8865609169006348 11.55445384979248 1.354646921157837 0.48257529735565186 -0.014781280420720577 -0.058127086609601974 0.4938230812549591 -0.03569808229804039 0.3657768964767456 -0.20659270882606506 -0.3658074736595154 -0.42146971821784973 7.4495391845703125 5.351673603057861 1.000536561012268 -0.6719619035720825 0.41270649433135986 -0.009755771607160568 3.1530418395996094 0.6236875057220459 -0.2011168748140335 0.7600259780883789 0.020942827686667442 -0.8017762303352356 10.360640525817871 0.16517718136310577 0.47655656933784485 0.5932987332344055 0.3636597990989685 -0.12029830366373062 1.79363214969635 -0.6155606508255005 0.15010055899620056 0.14120931923389435 0.08877646923065186 -0.46318867802619934 -28.81641960144043 71.69788360595703 -48.208457946777344 28.1719913482666 -39.70209884643555 -83.88793182373047 20.50986671447754 -73.7741470336914 27.40060043334961 0.016650423407554626 0.10328950732946396 0.22736012935638428 0.07025138288736343 0.6084564328193665 0.21055518090724945 -0.49480390548706055 0.24677322804927826 -0.28696322441101074 -7.3094658851623535 5.388515949249268 -0.5149890184402466 0.08387944847345352 0.2222958654165268 -0.42172136902809143 -3.12259840965271 1.286109209060669 0.024916063994169235 0.40541598200798035 -0.0019315038807690144 -0.3549362123012543 -10.452746391296387 0.584997832775116 -0.37513166666030884 -0.3026912808418274 0.17023463547229767 -0.2022707462310791 -2.461634397506714 -0.8265206217765808 -0.19474434852600098 -0.26032134890556335 -0.47995319962501526 -0.40554746985435486 -58.80588912963867 -53.67230987548828 -54.36616897583008 -2.3793225288391113 70.20238494873047 2.068495273590088 2.6984808444976807 -5.682745456695557 13.22099494934082 -0.16013261675834656 0.179850235581398 0.3209811747074127 17.50856590270996 -42.58648681640625 22.679275512695312 4.7941389083862305 83.75172424316406 -6.864941596984863 19.26752281188965 -23.97063446044922 30.70818328857422
